<?xml version="1.0" standalone="no"?>
<!DOCTYPE svg PUBLIC "-//W3C//DTD SVG 20010904//EN"
 "http://www.w3.org/TR/2001/REC-SVG-20010904/DTD/svg10.dtd">
<svg version="1.0" xmlns="http://www.w3.org/2000/svg"
 width="512.000000pt" height="512.000000pt" viewBox="0 0 512.000000 512.000000"
 preserveAspectRatio="xMidYMid meet">

<g transform="translate(0.000000,512.000000) scale(0.100000,-0.100000)"
fill="#000000" stroke="none">
<path d="M2393 5066 c-219 -42 -367 -122 -548 -296 -136 -131 -173 -160 -269
-209 -97 -49 -205 -79 -338 -91 -174 -17 -316 -61 -448 -139 -90 -54 -120 -84
-120 -119 0 -36 26 -69 60 -77 19 -4 41 4 88 35 142 92 266 134 434 150 142
14 250 41 355 90 122 57 186 103 313 226 64 62 148 132 187 158 277 179 628
179 906 0 40 -26 122 -95 182 -153 135 -131 187 -169 307 -226 113 -53 217
-80 363 -95 134 -13 208 -32 301 -74 232 -107 403 -310 464 -550 30 -121 34
-203 14 -363 -35 -287 11 -479 178 -741 73 -115 113 -213 133 -327 19 -111 19
-179 0 -290 -39 -223 -178 -434 -364 -553 -31 -19 -86 -54 -122 -78 -186 -119
-323 -303 -403 -541 -18 -54 -46 -123 -61 -153 -162 -323 -521 -507 -875 -449
-35 5 -130 32 -211 60 -272 92 -446 92 -718 0 -179 -61 -265 -75 -391 -68
-359 23 -638 247 -755 607 -36 113 -94 228 -155 310 -55 74 -163 180 -225 221
-22 14 -86 56 -142 93 -201 131 -328 324 -369 557 -38 216 13 432 146 629 86
127 149 288 169 434 15 105 14 168 -5 316 -14 104 -15 141 -5 219 14 115 49
224 101 315 62 106 49 166 -36 166 -35 0 -49 -13 -94 -89 -110 -188 -146 -390
-115 -644 15 -124 16 -162 7 -240 -18 -148 -62 -264 -151 -398 -154 -235 -210
-480 -166 -730 52 -300 212 -526 494 -701 126 -79 224 -168 288 -263 56 -83
75 -123 117 -249 62 -182 116 -274 236 -400 204 -214 469 -319 764 -303 116 7
209 28 367 86 180 65 379 65 559 0 155 -57 259 -80 375 -86 291 -14 553 91
755 303 120 126 175 220 236 400 41 123 60 164 117 249 65 96 162 184 292 265
180 112 299 233 385 393 176 325 155 715 -53 1022 -142 210 -184 392 -151 660
15 127 16 161 5 252 -27 235 -125 439 -287 599 -170 168 -374 259 -633 284
-254 24 -390 91 -602 296 -65 62 -143 130 -175 150 -87 56 -209 109 -304 134
-109 28 -305 35 -407 16z"/>
<path d="M2325 3894 c-269 -47 -522 -181 -720 -379 -262 -262 -396 -585 -397
-955 0 -372 132 -691 397 -955 264 -264 585 -398 955 -398 226 0 432 50 630
154 119 62 246 155 261 191 20 49 -11 98 -64 98 -23 0 -55 -17 -113 -58 -490
-351 -1143 -302 -1563 119 -492 491 -463 1301 61 1756 224 194 491 293 789
293 261 0 505 -79 709 -230 524 -390 647 -1104 283 -1651 -35 -52 -44 -74 -39
-93 13 -54 69 -79 112 -51 30 19 96 119 148 223 151 301 180 668 80 1001 -144
477 -569 851 -1063 935 -117 20 -354 20 -466 0z"/>
<path d="M1860 2698 c-17 -18 -20 -35 -20 -108 0 -77 2 -89 23 -108 30 -28 80
-29 107 -2 17 17 20 33 20 110 0 77 -3 93 -20 110 -27 27 -83 27 -110 -2z"/>
<path d="M3150 2700 c-17 -17 -20 -33 -20 -108 0 -75 3 -92 20 -110 28 -30 80
-29 108 1 19 20 22 35 22 108 0 72 -3 89 -20 107 -27 29 -83 29 -110 2z"/>
<path d="M2375 2610 c-56 -22 -65 -84 -19 -131 77 -80 215 -106 320 -60 67 29
117 81 117 121 0 59 -64 96 -110 63 -65 -46 -81 -53 -121 -53 -47 0 -71 10
-115 46 -30 26 -40 27 -72 14z"/>
</g>
</svg>
